<svg width="340" height="218" viewBox="0 0 340 218" fill="none" xmlns="http://www.w3.org/2000/svg">
<rect width="340" height="218" fill="#1E2532"/>
<path d="M87.5742 132.943L88.1504 135.219L91.2461 125.434H91.7832L94.8594 135.219L95.4551 132.943L97.6035 125.434H98.2188L95.1426 136H94.6152L92.0078 128.061L91.5098 126.166L90.9727 128.061L88.4043 136H87.877L84.8105 125.434H85.416L87.5742 132.943ZM105.111 132.943L105.687 135.219L108.783 125.434H109.32L112.396 135.219L112.992 132.943L115.14 125.434H115.755L112.679 136H112.152L109.545 128.061L109.046 126.166L108.509 128.061L105.941 136H105.414L102.347 125.434H102.953L105.111 132.943ZM122.648 132.943L123.224 135.219L126.32 125.434H126.857L129.933 135.219L130.529 132.943L132.677 125.434H133.292L130.216 136H129.689L127.081 128.061L126.583 126.166L126.046 128.061L123.478 136H122.95L119.884 125.434H120.489L122.648 132.943ZM136.835 135.521C136.835 135.372 136.887 135.245 136.991 135.141C137.095 135.03 137.222 134.975 137.372 134.975C137.522 134.975 137.649 135.03 137.753 135.141C137.863 135.245 137.919 135.372 137.919 135.521C137.919 135.671 137.863 135.798 137.753 135.902C137.649 136.007 137.522 136.059 137.372 136.059C137.222 136.059 137.095 136.007 136.991 135.902C136.887 135.798 136.835 135.671 136.835 135.521ZM150.289 133.412C150.289 132.13 149.196 131.257 147.008 130.795C145.693 130.515 144.778 130.157 144.264 129.721C143.75 129.278 143.493 128.673 143.493 127.904C143.493 127.13 143.818 126.492 144.469 125.99C145.127 125.489 145.98 125.238 147.028 125.238C148.167 125.238 149.082 125.512 149.772 126.059C150.462 126.599 150.807 127.331 150.807 128.256H150.27C150.27 127.546 149.97 126.954 149.371 126.479C148.773 126.003 147.991 125.766 147.028 125.766C146.103 125.766 145.371 125.967 144.83 126.371C144.29 126.775 144.02 127.279 144.02 127.885C144.02 128.36 144.121 128.734 144.323 129.008C144.524 129.275 144.853 129.519 145.309 129.74C145.765 129.955 146.429 130.163 147.301 130.365C148.174 130.567 148.864 130.805 149.371 131.078C149.879 131.352 150.247 131.677 150.475 132.055C150.703 132.426 150.817 132.882 150.817 133.422C150.817 134.255 150.475 134.926 149.791 135.434C149.108 135.941 148.213 136.195 147.106 136.195C145.921 136.195 144.964 135.928 144.235 135.395C143.512 134.854 143.151 134.161 143.151 133.314H143.678C143.73 134.057 144.056 134.636 144.655 135.053C145.26 135.463 146.077 135.668 147.106 135.668C148.05 135.668 148.815 135.45 149.401 135.014C149.993 134.571 150.289 134.037 150.289 133.412ZM162.65 133.412C162.65 132.13 161.557 131.257 159.369 130.795C158.054 130.515 157.139 130.157 156.625 129.721C156.111 129.278 155.854 128.673 155.854 127.904C155.854 127.13 156.179 126.492 156.83 125.99C157.488 125.489 158.34 125.238 159.389 125.238C160.528 125.238 161.443 125.512 162.133 126.059C162.823 126.599 163.168 127.331 163.168 128.256H162.631C162.631 127.546 162.331 126.954 161.732 126.479C161.133 126.003 160.352 125.766 159.389 125.766C158.464 125.766 157.732 125.967 157.191 126.371C156.651 126.775 156.381 127.279 156.381 127.885C156.381 128.36 156.482 128.734 156.684 129.008C156.885 129.275 157.214 129.519 157.67 129.74C158.126 129.955 158.79 130.163 159.662 130.365C160.535 130.567 161.225 130.805 161.732 131.078C162.24 131.352 162.608 131.677 162.836 132.055C163.064 132.426 163.178 132.882 163.178 133.422C163.178 134.255 162.836 134.926 162.152 135.434C161.469 135.941 160.574 136.195 159.467 136.195C158.282 136.195 157.325 135.928 156.596 135.395C155.873 134.854 155.512 134.161 155.512 133.314H156.039C156.091 134.057 156.417 134.636 157.016 135.053C157.621 135.463 158.438 135.668 159.467 135.668C160.411 135.668 161.176 135.45 161.762 135.014C162.354 134.571 162.65 134.037 162.65 133.412ZM169.679 122.582V125.434H172.082V125.971H169.679V133.471C169.679 134.219 169.8 134.773 170.041 135.131C170.288 135.489 170.698 135.668 171.271 135.668C171.558 135.668 171.906 135.639 172.316 135.58L172.404 136.078C172.189 136.156 171.821 136.195 171.3 136.195C170.532 136.195 169.982 135.984 169.65 135.561C169.318 135.131 169.149 134.457 169.142 133.539V125.971H167.189V125.434H169.142V122.582H169.679ZM178.407 122.582V125.434H180.81V125.971H178.407V133.471C178.407 134.219 178.528 134.773 178.769 135.131C179.016 135.489 179.426 135.668 179.999 135.668C180.286 135.668 180.634 135.639 181.044 135.58L181.132 136.078C180.917 136.156 180.549 136.195 180.029 136.195C179.26 136.195 178.71 135.984 178.378 135.561C178.046 135.131 177.877 134.457 177.87 133.539V125.971H175.917V125.434H177.87V122.582H178.407ZM189.753 136.195C188.9 136.195 188.115 135.967 187.399 135.512C186.69 135.049 186.133 134.418 185.729 133.617C185.326 132.816 185.124 131.928 185.124 130.951V130.512C185.124 129.535 185.319 128.64 185.71 127.826C186.1 127.012 186.637 126.378 187.321 125.922C188.005 125.466 188.75 125.238 189.557 125.238C190.736 125.238 191.699 125.658 192.448 126.498C193.197 127.338 193.571 128.441 193.571 129.809V130.365H185.651V130.941C185.651 131.801 185.83 132.598 186.188 133.334C186.553 134.063 187.051 134.636 187.682 135.053C188.32 135.469 189.011 135.678 189.753 135.678C190.462 135.678 191.065 135.561 191.559 135.326C192.061 135.085 192.503 134.717 192.887 134.223L193.259 134.486C192.471 135.626 191.302 136.195 189.753 136.195ZM189.557 125.766C188.529 125.766 187.656 126.15 186.94 126.918C186.224 127.68 185.804 128.653 185.68 129.838H193.044V129.711C193.044 128.995 192.891 128.331 192.585 127.719C192.285 127.1 191.869 126.622 191.335 126.283C190.807 125.938 190.215 125.766 189.557 125.766ZM200.512 130.287L200.493 130.307L198.959 131.625V136H198.432V121H198.959V131.049L200.2 129.877L205.004 125.434H205.756L200.903 129.936L206.059 136H205.375L200.512 130.287ZM210.061 135.521C210.061 135.372 210.113 135.245 210.217 135.141C210.321 135.03 210.448 134.975 210.598 134.975C210.747 134.975 210.874 135.03 210.979 135.141C211.089 135.245 211.145 135.372 211.145 135.521C211.145 135.671 211.089 135.798 210.979 135.902C210.874 136.007 210.747 136.059 210.598 136.059C210.448 136.059 210.321 136.007 210.217 135.902C210.113 135.798 210.061 135.671 210.061 135.521ZM220.586 135.668C221.543 135.668 222.33 135.414 222.949 134.906C223.574 134.398 223.916 133.695 223.974 132.797H224.502C224.449 133.819 224.056 134.643 223.32 135.268C222.584 135.886 221.673 136.195 220.586 136.195C219.264 136.195 218.212 135.717 217.431 134.76C216.657 133.803 216.269 132.504 216.269 130.863V130.512C216.269 128.91 216.657 127.631 217.431 126.674C218.212 125.717 219.257 125.238 220.566 125.238C221.686 125.238 222.61 125.574 223.339 126.244C224.069 126.915 224.456 127.807 224.502 128.92H223.974C223.929 127.969 223.593 127.208 222.968 126.635C222.35 126.055 221.549 125.766 220.566 125.766C219.388 125.766 218.463 126.192 217.793 127.045C217.129 127.891 216.796 129.07 216.796 130.58V130.922C216.796 132.4 217.132 133.562 217.802 134.408C218.479 135.248 219.407 135.668 220.586 135.668ZM228.757 130.512C228.757 129.503 228.949 128.598 229.333 127.797C229.724 126.99 230.271 126.361 230.974 125.912C231.683 125.463 232.484 125.238 233.376 125.238C234.262 125.238 235.056 125.456 235.759 125.893C236.462 126.329 237.009 126.947 237.4 127.748C237.797 128.549 237.999 129.451 238.005 130.453V130.922C238.005 131.938 237.813 132.846 237.429 133.646C237.045 134.447 236.498 135.072 235.788 135.521C235.085 135.971 234.288 136.195 233.396 136.195C232.504 136.195 231.703 135.974 230.993 135.531C230.29 135.089 229.743 134.47 229.353 133.676C228.962 132.875 228.764 131.977 228.757 130.98V130.512ZM229.284 130.922C229.284 131.801 229.457 132.608 229.802 133.344C230.154 134.073 230.639 134.643 231.257 135.053C231.882 135.463 232.595 135.668 233.396 135.668C234.6 135.668 235.58 135.215 236.335 134.311C237.097 133.406 237.478 132.24 237.478 130.814V130.512C237.478 129.646 237.302 128.845 236.95 128.109C236.599 127.374 236.111 126.801 235.486 126.391C234.867 125.974 234.164 125.766 233.376 125.766C232.172 125.766 231.189 126.225 230.427 127.143C229.665 128.061 229.284 129.216 229.284 130.609V130.922ZM250.532 136H250.005V128.9C249.998 127.839 249.764 127.051 249.302 126.537C248.846 126.016 248.117 125.756 247.114 125.756C245.955 125.756 245.008 126.267 244.272 127.289C243.836 127.901 243.546 128.578 243.403 129.32V136H242.866V125.434H243.403V127.934C243.761 127.074 244.272 126.41 244.936 125.941C245.6 125.473 246.336 125.238 247.143 125.238C248.029 125.238 248.751 125.434 249.311 125.824C249.878 126.215 250.249 126.853 250.425 127.738C250.737 126.977 251.245 126.371 251.948 125.922C252.651 125.466 253.439 125.238 254.311 125.238C255.451 125.238 256.297 125.561 256.85 126.205C257.41 126.85 257.693 127.816 257.7 129.105V136H257.173V129.145C257.173 127.986 256.938 127.13 256.47 126.576C256.007 126.016 255.278 125.743 254.282 125.756C252.999 125.775 251.984 126.286 251.235 127.289C250.805 127.868 250.571 128.428 250.532 128.969V136Z" fill="white"/>
<path d="M248.424 83.2279V101.273H231.461V83.2279H248.424Z" fill="#FF3159"/>
<path d="M259.931 79.185V88.617H251.043V79.185H259.931Z" fill="#FF8E2F"/>
<path d="M247.129 73.7963V80.5334H240.602V73.7963H247.129Z" fill="#01AAF3"/>
<path fill-rule="evenodd" clip-rule="evenodd" d="M209.694 111.788V103.81L214.316 98.7105L222.366 111.788H229.375L218.455 94.2984L228.613 83.2548H221.807L209.694 96.0157V75.9998H203.777V111.788H209.694ZM94.5005 82.8317C97.9288 82.8317 101.586 83.8885 104.023 85.7115L101.865 90.2558C99.4524 88.697 96.4305 87.7459 94.018 87.7459C91.7071 87.7459 90.0057 88.5385 90.0057 90.5728C90.0057 92.7484 92.5136 93.5302 95.4398 94.4424C99.5497 95.7237 104.485 97.2622 104.455 103.281C104.455 109.093 99.4778 111.709 93.9926 111.709C89.9803 111.709 85.7394 110.335 83.0222 107.746L85.1299 103.36C87.4916 105.553 91.2754 106.874 94.2465 106.874C96.7606 106.874 98.716 105.976 98.716 103.836C98.716 101.34 96.0709 100.515 93.0562 99.5747C89.0495 98.325 84.3899 96.8716 84.4189 91.022C84.4696 85.2888 89.2946 82.8317 94.5005 82.8317ZM118.067 82.8317C121.495 82.8317 125.152 83.8885 127.615 85.7115L125.456 90.2558C123.044 88.697 120.022 87.7459 117.61 87.7459C115.299 87.7459 113.597 88.5385 113.597 90.5728C113.597 92.7484 116.105 93.5302 119.031 94.4424C123.141 95.7237 128.076 97.2622 128.047 103.281C128.047 109.093 123.069 111.709 117.584 111.709C113.572 111.709 109.331 110.335 106.614 107.746L108.721 103.36C111.083 105.553 114.867 106.874 117.838 106.874C120.352 106.874 122.308 105.976 122.308 103.836C122.308 101.34 119.662 100.515 116.648 99.5747C112.641 98.325 107.981 96.8716 108.01 91.022C108.036 85.2888 112.835 82.8317 118.067 82.8317ZM147.423 104.998L148.896 109.701C146.737 111.048 144.477 111.788 142.191 111.788C138.103 111.788 134.548 109.331 134.548 103.519V88.7498H130.713V84.1527H134.548V76.3588H140.388V84.1527H152.933H153.162H156.768V76.3588H162.609V84.1527H170.659V88.7498H162.609V102.383C162.609 105.315 163.675 106.24 165.529 106.24C166.748 106.214 168.043 105.791 169.617 104.972L171.116 109.675C168.957 111.022 166.697 111.762 164.412 111.762C160.323 111.762 156.768 109.305 156.768 103.492V88.7498H153.162H152.933H140.388V102.383C140.388 105.315 141.455 106.24 143.309 106.24C144.553 106.214 145.848 105.791 147.423 104.998ZM186.937 82.8846C196.51 82.8846 200.421 89.4103 199.685 99.6613H179.09C180.004 104.047 183.254 106.768 187.546 106.768C190.517 106.768 193.234 105.606 195.241 103.466L198.364 106.927C195.698 109.965 191.812 111.735 187.089 111.735C178.683 111.735 173.147 105.923 173.147 97.3628C173.147 88.7498 178.836 82.9374 186.937 82.8846ZM178.988 95.1699H194.58C194.377 90.5728 191.457 87.7987 186.987 87.7987C182.67 87.7987 179.648 90.6257 178.988 95.1699Z" fill="white"/>
</svg>
